<svg width="122" height="46" viewBox="0 0 122 46" fill="none" xmlns="http://www.w3.org/2000/svg">
<rect x="9" y="8" width="34" height="31" rx="10" fill="#9FEF00"/>
<path d="M16.256 23.92L21.328 26.016L20.96 27.12L14.784 24.496V23.36L20.96 20.736L21.328 21.84L16.256 23.92ZM24.464 30.64H23.104L27.568 16.816H28.896L24.464 30.64ZM30.784 21.84L31.152 20.736L37.328 23.36V24.496L31.152 27.12L30.784 26.016L35.856 23.92L30.784 21.84Z" fill="#141D2B"/>
<path d="M64.6621 28.2891C64.6621 28.0352 64.6165 27.7975 64.5254 27.5762C64.4408 27.3548 64.2943 27.1465 64.0859 26.9512C63.8711 26.7624 63.5911 26.5898 63.2461 26.4336C62.9076 26.2708 62.4844 26.1211 61.9766 25.9844C61.1888 25.7695 60.4954 25.5091 59.8965 25.2031C59.304 24.8971 58.819 24.5618 58.4414 24.1973C58.0638 23.8327 57.7773 23.429 57.582 22.9863C57.3932 22.5436 57.2988 22.0618 57.2988 21.541C57.2988 20.9421 57.4258 20.3984 57.6797 19.9102C57.9336 19.4219 58.2852 19.0052 58.7344 18.6602C59.1836 18.3151 59.7142 18.0514 60.3262 17.8691C60.9382 17.6803 61.6022 17.5859 62.3184 17.5859C63.0605 17.5859 63.7376 17.6934 64.3496 17.9082C64.9681 18.123 65.4987 18.4225 65.9414 18.8066C66.3841 19.1973 66.7292 19.6595 66.9766 20.1934C67.224 20.7272 67.3477 21.3132 67.3477 21.9512H64.6719C64.6589 21.6322 64.6003 21.3392 64.4961 21.0723C64.3984 20.8053 64.252 20.5742 64.0566 20.3789C63.8548 20.1901 63.6042 20.0436 63.3047 19.9395C63.0117 19.8288 62.6667 19.7734 62.2695 19.7734C61.9049 19.7734 61.5794 19.819 61.293 19.9102C61.013 19.9948 60.7754 20.1152 60.5801 20.2715C60.3848 20.4342 60.235 20.6263 60.1309 20.8477C60.0332 21.0625 59.9844 21.2969 59.9844 21.5508C59.9844 21.8177 60.0495 22.0586 60.1797 22.2734C60.3164 22.4883 60.5117 22.6803 60.7656 22.8496C61.0195 23.0254 61.3255 23.1849 61.6836 23.3281C62.0482 23.4714 62.4583 23.6048 62.9141 23.7285C63.4023 23.8652 63.8678 24.0312 64.3105 24.2266C64.7533 24.4219 65.1602 24.6465 65.5312 24.9004C66.0911 25.3171 66.5371 25.8021 66.8691 26.3555C67.2012 26.9089 67.3672 27.5469 67.3672 28.2695C67.3672 28.8945 67.2402 29.4512 66.9863 29.9395C66.7389 30.4212 66.3939 30.8281 65.9512 31.1602C65.5085 31.4987 64.9811 31.7559 64.3691 31.9316C63.7572 32.1009 63.0898 32.1855 62.3672 32.1855C61.6576 32.1855 60.9544 32.0814 60.2578 31.873C59.5677 31.6582 58.9655 31.3457 58.4512 30.9355C57.9629 30.5319 57.5755 30.0566 57.2891 29.5098C57.0091 28.9629 56.8691 28.3216 56.8691 27.5859H59.5645C59.5775 28.0156 59.6523 28.3835 59.7891 28.6895C59.9258 28.9954 60.1178 29.2461 60.3652 29.4414C60.6061 29.6367 60.8958 29.7799 61.2344 29.8711C61.5794 29.9622 61.957 30.0078 62.3672 30.0078C62.7318 30.0078 63.054 29.9655 63.334 29.8809C63.6204 29.7962 63.8613 29.679 64.0566 29.5293C64.252 29.3796 64.4017 29.2005 64.5059 28.9922C64.61 28.7773 64.6621 28.543 64.6621 28.2891ZM72.1328 30.4277C72.1328 29.9264 72.2988 29.5033 72.6309 29.1582C72.9629 28.8066 73.4251 28.6309 74.0176 28.6309C74.6035 28.6309 75.0625 28.8034 75.3945 29.1484C75.7331 29.4935 75.9023 29.9199 75.9023 30.4277C75.9023 30.9355 75.7298 31.3587 75.3848 31.6973C75.0462 32.0293 74.5905 32.1953 74.0176 32.1953C73.4382 32.1953 72.9792 32.026 72.6406 31.6875C72.3021 31.349 72.1328 30.929 72.1328 30.4277ZM91.752 20.0176H87.3672V32H84.6133V20.0176H80.2871V17.7812H91.752V20.0176Z" fill="#9FEF00"/>
</svg>
