<svg xmlns="http://www.w3.org/2000/svg" style="display: none;">
  <!-- SVG icon files -->


  <symbol id="shift" viewBox="0 0 42 42">
    <path d="M19.4425 7.08575C19.9038 7.0347 20.326 6.80247 20.6161 6.44015C20.9062 6.07783 21.0406 5.6151 20.9895 5.15375C20.9384 4.69241 20.7062 4.27024 20.3439 3.98012C19.9816 3.69 19.5188 3.5557 19.0575 3.60675C10.304 4.5745 3.5 11.991 3.5 21C3.5 30.6653 11.3348 38.5 21 38.5C30.0055 38.5 37.4202 31.6978 38.3932 22.9495C38.4443 22.4882 38.31 22.0254 38.0199 21.6631C37.7298 21.3008 37.3076 21.0686 36.8463 21.0175C36.3849 20.9664 35.9222 21.1008 35.5599 21.3909C35.1975 21.681 34.9653 22.1032 34.9142 22.5645C34.5112 26.1172 32.7643 29.3811 30.0318 31.687C27.2992 33.9929 23.7881 35.1661 20.2182 34.966C16.6484 34.7659 13.2903 33.2077 10.8325 30.6109C8.37476 28.0141 7.00353 24.5755 7 21C7.0001 17.5566 8.26908 14.2339 10.5644 11.6671C12.8598 9.10023 16.0205 7.46922 19.4425 7.08575ZM25.8423 4.18425C25.4 4.07266 24.9316 4.13817 24.5369 4.36683C24.1422 4.59549 23.8524 4.96922 23.7292 5.40841C23.606 5.84761 23.6591 6.31755 23.8773 6.71813C24.0955 7.11871 24.4615 7.41827 24.8973 7.553C25.3995 7.69475 25.893 7.8645 26.3708 8.0605C26.8005 8.23617 27.2825 8.23392 27.7106 8.05424C28.1387 7.87455 28.478 7.53216 28.6536 7.10238C28.8293 6.67259 28.827 6.19063 28.6474 5.7625C28.4677 5.33438 28.1253 4.99517 27.6955 4.8195C27.0903 4.57268 26.4716 4.36058 25.8423 4.18425ZM30.3608 8.20925C30.5162 8.03999 30.7035 7.903 30.9119 7.80612C31.1203 7.70923 31.3458 7.65435 31.5754 7.6446C31.805 7.63485 32.0343 7.67042 32.2502 7.74929C32.466 7.82816 32.6642 7.94877 32.8335 8.10425C33.2045 8.44375 33.5597 8.799 33.8993 9.16825C34.213 9.51031 34.378 9.963 34.358 10.4267C34.338 10.8905 34.1346 11.3273 33.7925 11.641C33.4504 11.9548 32.9977 12.1198 32.534 12.0997C32.0703 12.0797 31.6335 11.8763 31.3197 11.5343C31.0487 11.2386 30.7649 10.9548 30.4692 10.6838C30.2997 10.5285 30.1625 10.3414 30.0653 10.1331C29.9681 9.92486 29.9129 9.69947 29.9028 9.46985C29.8927 9.24023 29.928 9.01087 30.0066 8.79487C30.0851 8.57888 30.2055 8.37873 30.3608 8.20925ZM19.25 10.5C19.7141 10.5 20.1592 10.6844 20.4874 11.0126C20.8156 11.3408 21 11.7859 21 12.25V21H26.25C26.7141 21 27.1592 21.1844 27.4874 21.5126C27.8156 21.8408 28 22.2859 28 22.75C28 23.2141 27.8156 23.6592 27.4874 23.9874C27.1592 24.3156 26.7141 24.5 26.25 24.5H19.25C18.7859 24.5 18.3408 24.3156 18.0126 23.9874C17.6844 23.6592 17.5 23.2141 17.5 22.75V12.25C17.5 11.7859 17.6844 11.3408 18.0126 11.0126C18.3408 10.6844 18.7859 10.5 19.25 10.5ZM34.895 13.3403C35.3246 13.1646 35.8063 13.1668 36.2342 13.3463C36.6622 13.5258 37.0013 13.868 37.177 14.2975C37.4251 14.9049 37.6384 15.526 37.8158 16.1578C37.8848 16.381 37.9084 16.6158 37.8852 16.8484C37.862 17.0809 37.7924 17.3065 37.6807 17.5117C37.5689 17.7169 37.4171 17.8977 37.2344 18.0433C37.0516 18.1889 36.8415 18.2965 36.6165 18.3596C36.3915 18.4227 36.1561 18.4401 35.9243 18.4108C35.6924 18.3815 35.4688 18.306 35.2666 18.1889C35.0644 18.0717 34.8877 17.9153 34.7469 17.7287C34.6061 17.5422 34.5042 17.3293 34.447 17.1028C34.3054 16.6 34.1353 16.1057 33.9377 15.6223C33.762 15.1929 33.764 14.7114 33.9431 14.2835C34.1223 13.8556 34.464 13.5163 34.8932 13.3403H34.895Z" fill="#4B82C2"/>
  </symbol>

</svg>