<svg xmlns="http://www.w3.org/2000/svg" style="display: none;">
  <!-- SVG icon files -->
    <symbol id="logo">
        <svg width="122" height="46" viewBox="0 0 122 46" fill="none" xmlns="http://www.w3.org/2000/svg">
            <rect x="9" y="8" width="34" height="31" rx="10" fill="#9FEF00"/>
            <path d="M16.256 23.92L21.328 26.016L20.96 27.12L14.784 24.496V23.36L20.96 20.736L21.328 21.84L16.256 23.92ZM24.464 30.64H23.104L27.568 16.816H28.896L24.464 30.64ZM30.784 21.84L31.152 20.736L37.328 23.36V24.496L31.152 27.12L30.784 26.016L35.856 23.92L30.784 21.84Z" fill="#141D2B"/>
            <path d="M64.6621 28.2891C64.6621 28.0352 64.6165 27.7975 64.5254 27.5762C64.4408 27.3548 64.2943 27.1465 64.0859 26.9512C63.8711 26.7624 63.5911 26.5898 63.2461 26.4336C62.9076 26.2708 62.4844 26.1211 61.9766 25.9844C61.1888 25.7695 60.4954 25.5091 59.8965 25.2031C59.304 24.8971 58.819 24.5618 58.4414 24.1973C58.0638 23.8327 57.7773 23.429 57.582 22.9863C57.3932 22.5436 57.2988 22.0618 57.2988 21.541C57.2988 20.9421 57.4258 20.3984 57.6797 19.9102C57.9336 19.4219 58.2852 19.0052 58.7344 18.6602C59.1836 18.3151 59.7142 18.0514 60.3262 17.8691C60.9382 17.6803 61.6022 17.5859 62.3184 17.5859C63.0605 17.5859 63.7376 17.6934 64.3496 17.9082C64.9681 18.123 65.4987 18.4225 65.9414 18.8066C66.3841 19.1973 66.7292 19.6595 66.9766 20.1934C67.224 20.7272 67.3477 21.3132 67.3477 21.9512H64.6719C64.6589 21.6322 64.6003 21.3392 64.4961 21.0723C64.3984 20.8053 64.252 20.5742 64.0566 20.3789C63.8548 20.1901 63.6042 20.0436 63.3047 19.9395C63.0117 19.8288 62.6667 19.7734 62.2695 19.7734C61.9049 19.7734 61.5794 19.819 61.293 19.9102C61.013 19.9948 60.7754 20.1152 60.5801 20.2715C60.3848 20.4342 60.235 20.6263 60.1309 20.8477C60.0332 21.0625 59.9844 21.2969 59.9844 21.5508C59.9844 21.8177 60.0495 22.0586 60.1797 22.2734C60.3164 22.4883 60.5117 22.6803 60.7656 22.8496C61.0195 23.0254 61.3255 23.1849 61.6836 23.3281C62.0482 23.4714 62.4583 23.6048 62.9141 23.7285C63.4023 23.8652 63.8678 24.0312 64.3105 24.2266C64.7533 24.4219 65.1602 24.6465 65.5312 24.9004C66.0911 25.3171 66.5371 25.8021 66.8691 26.3555C67.2012 26.9089 67.3672 27.5469 67.3672 28.2695C67.3672 28.8945 67.2402 29.4512 66.9863 29.9395C66.7389 30.4212 66.3939 30.8281 65.9512 31.1602C65.5085 31.4987 64.9811 31.7559 64.3691 31.9316C63.7572 32.1009 63.0898 32.1855 62.3672 32.1855C61.6576 32.1855 60.9544 32.0814 60.2578 31.873C59.5677 31.6582 58.9655 31.3457 58.4512 30.9355C57.9629 30.5319 57.5755 30.0566 57.2891 29.5098C57.0091 28.9629 56.8691 28.3216 56.8691 27.5859H59.5645C59.5775 28.0156 59.6523 28.3835 59.7891 28.6895C59.9258 28.9954 60.1178 29.2461 60.3652 29.4414C60.6061 29.6367 60.8958 29.7799 61.2344 29.8711C61.5794 29.9622 61.957 30.0078 62.3672 30.0078C62.7318 30.0078 63.054 29.9655 63.334 29.8809C63.6204 29.7962 63.8613 29.679 64.0566 29.5293C64.252 29.3796 64.4017 29.2005 64.5059 28.9922C64.61 28.7773 64.6621 28.543 64.6621 28.2891ZM72.1328 30.4277C72.1328 29.9264 72.2988 29.5033 72.6309 29.1582C72.9629 28.8066 73.4251 28.6309 74.0176 28.6309C74.6035 28.6309 75.0625 28.8034 75.3945 29.1484C75.7331 29.4935 75.9023 29.9199 75.9023 30.4277C75.9023 30.9355 75.7298 31.3587 75.3848 31.6973C75.0462 32.0293 74.5905 32.1953 74.0176 32.1953C73.4382 32.1953 72.9792 32.026 72.6406 31.6875C72.3021 31.349 72.1328 30.929 72.1328 30.4277ZM91.752 20.0176H87.3672V32H84.6133V20.0176H80.2871V17.7812H91.752V20.0176Z" fill="#9FEF00"/>
        </svg>
        <!-- <svg width="103" height="55" viewBox="0 0 103 55" fill="none" xmlns="http://www.w3.org/2000/svg">
            <path d="M60.2311 31.7204C60.2311 33.2684 59.8231 34.6364 59.0071 35.8244C58.2031 37.0124 57.0451 37.9424 55.5331 38.6144C54.0211 39.2864 52.2031 39.6224 50.0791 39.6224C47.7271 39.6224 45.7531 39.2804 44.1571 38.5964C42.5731 37.9004 41.2591 37.0424 40.2151 36.0224L43.2031 32.7104C44.1271 33.5144 45.1471 34.1384 46.2631 34.5824C47.3791 35.0144 48.6031 35.2304 49.9351 35.2304C50.7631 35.2304 51.4891 35.1104 52.1131 34.8704C52.7371 34.6304 53.2231 34.2824 53.5711 33.8264C53.9191 33.3704 54.0931 32.8184 54.0931 32.1704C54.0931 31.5584 53.9551 31.0424 53.6791 30.6224C53.4031 30.2024 52.9351 29.8244 52.2751 29.4884C51.6271 29.1524 50.7211 28.8104 49.5571 28.4624C47.6131 27.8624 46.0471 27.2024 44.8591 26.4824C43.6831 25.7624 42.8251 24.9284 42.2851 23.9804C41.7571 23.0324 41.4931 21.9284 41.4931 20.6684C41.4931 19.1444 41.9131 17.8424 42.7531 16.7624C43.6051 15.6824 44.7451 14.8604 46.1731 14.2964C47.6011 13.7204 49.1731 13.4324 50.8891 13.4324C52.8211 13.4324 54.5251 13.7144 56.0011 14.2784C57.4771 14.8304 58.7551 15.6224 59.8351 16.6544L57.0451 19.8584C56.2051 19.1504 55.2991 18.6284 54.3271 18.2924C53.3551 17.9444 52.3651 17.7704 51.3571 17.7704C50.6131 17.7704 49.9591 17.8664 49.3951 18.0584C48.8311 18.2384 48.3931 18.5084 48.0811 18.8684C47.7691 19.2284 47.6131 19.6784 47.6131 20.2184C47.6131 20.7464 47.7631 21.1904 48.0631 21.5504C48.3631 21.9104 48.8851 22.2524 49.6291 22.5764C50.3731 22.8884 51.4051 23.2544 52.7251 23.6744C54.2971 24.1544 55.6411 24.7304 56.7571 25.4024C57.8851 26.0624 58.7431 26.8964 59.3311 27.9044C59.9311 28.9124 60.2311 30.1844 60.2311 31.7204ZM75.0851 18.5804V39.0104H69.1811V18.5804H62.1791V14.0624H82.3751L81.7631 18.5804H75.0851Z" fill="#9FEF00"/>
            <path d="M25.3843 48.2934L19.6138 46.6485L31.7779 5.99626L37.5049 7.64773L25.3843 48.2934Z" fill="#9FEF00"/>
            <path d="M0.477005 25.2279L13.6689 12.5019C14.3049 11.8883 15.3366 11.8883 15.9726 12.5019L17.5114 13.9864C18.1467 14.5993 18.1474 15.592 17.5141 16.2063L7.05902 26.3391L17.5134 36.4727C18.1474 37.0869 18.146 38.0796 17.5107 38.6926L15.9719 40.1771C15.3359 40.7906 14.3042 40.7906 13.6682 40.1771L0.477005 27.4504C-0.159001 26.8368 -0.159001 25.8415 0.477005 25.2279Z" fill="#9FEF00"/>
            <path d="M101.835 28.3561L89.1529 41.0385C88.5412 41.6502 87.5495 41.6502 86.9379 41.0385L85.4587 39.5593C84.8481 38.9487 84.8469 37.9591 85.4561 37.347L95.5072 27.2486L85.4561 17.1503C84.8469 16.5382 84.8481 15.5486 85.4587 14.938L86.9379 13.4587C87.5496 12.8471 88.5413 12.8471 89.1529 13.4587L101.835 26.1412C102.447 26.7528 102.447 27.7444 101.835 28.3561Z" fill="#9FEF00"/>
        </svg> -->
    </symbol>

    <symbol id="github">
        <svg class="w-6 h-6 text-gray-800 dark:text-white" aria-hidden="true" xmlns="http://www.w3.org/2000/svg" fill="currentColor" viewBox="0 0 20 20">
            <path fill-rule="evenodd" d="M10 .333A9.911 9.911 0 0 0 6.866 19.65c.5.092.678-.215.678-.477 0-.237-.01-1.017-.014-1.845-2.757.6-3.338-1.169-3.338-1.169a2.627 2.627 0 0 0-1.1-1.451c-.9-.615.07-.6.07-.6a2.084 2.084 0 0 1 1.518 1.021 2.11 2.11 0 0 0 2.884.823c.044-.503.268-.973.63-1.325-2.2-.25-4.516-1.1-4.516-4.9A3.832 3.832 0 0 1 4.7 7.068a3.56 3.56 0 0 1 .095-2.623s.832-.266 2.726 1.016a9.409 9.409 0 0 1 4.962 0c1.89-1.282 2.717-1.016 2.717-1.016.366.83.402 1.768.1 2.623a3.827 3.827 0 0 1 1.02 2.659c0 3.807-2.319 4.644-4.525 4.889a2.366 2.366 0 0 1 .673 1.834c0 1.326-.012 2.394-.012 2.72 0 .263.18.572.681.475A9.911 9.911 0 0 0 10 .333Z" clip-rule="evenodd"/>
        </svg>
    </symbol>

    <symbol id="linkedin">
        <svg class="w-6 h-6 text-gray-800 dark:text-white" aria-hidden="true" xmlns="http://www.w3.org/2000/svg" fill="currentColor" viewBox="0 0 15 15">
            <path fill-rule="evenodd" d="M7.979 5v1.586a3.5 3.5 0 0 1 3.082-1.574C14.3 5.012 15 7.03 15 9.655V15h-3v-4.738c0-1.13-.229-2.584-1.995-2.584-1.713 0-2.005 1.23-2.005 2.5V15H5.009V5h2.97ZM3 2.487a1.5 1.5 0 1 1-3 0 1.5 1.5 0 0 1 3 0Z" clip-rule="evenodd"/>
            <path d="M3 5.012H0V15h3V5.012Z"/>
        </svg>
    </symbol>

    <symbol id="arrow">
        <svg class="w-6 h-6 text-gray-800 dark:text-white" aria-hidden="true" xmlns="http://www.w3.org/2000/svg" fill="none" viewBox="0 0 10 16">
            <path stroke="currentColor" stroke-linecap="round" stroke-linejoin="round" stroke-width="2" d="m2.707 14.293 5.586-5.586a1 1 0 0 0 0-1.414L2.707 1.707A1 1 0 0 0 1 2.414v11.172a1 1 0 0 0 1.707.707Z"/>
        </svg>
    </symbol>

    <symbol id="bars">
        <svg class="w-6 h-6 text-gray-800 dark:text-white" aria-hidden="true" xmlns="http://www.w3.org/2000/svg" fill="none" viewBox="0 0 16 12">
            <path stroke="currentColor" stroke-linecap="round" stroke-linejoin="round" stroke-width="2" d="M1 1h14M1 6h14M1 11h7"/>
        </svg>
    </symbol>

    <symbol id="close-circle">
        <svg class="w-6 h-6 text-gray-800 dark:text-white" aria-hidden="true" xmlns="http://www.w3.org/2000/svg" fill="none" viewBox="0 0 20 20">
            <path stroke="currentColor" stroke-linecap="round" stroke-linejoin="round" stroke-width="2" d="m13 7-6 6m0-6 6 6m6-3a9 9 0 1 1-18 0 9 9 0 0 1 18 0Z"/>
        </svg>
    </symbol>

    <symbol id="folder" fill="none" viewBox="0 0 24 24" stroke-width="1.5" stroke="currentColor" class="w-6 h-6">
        <path stroke-linecap="round" stroke-linejoin="round" d="M2.25 12.75V12A2.25 2.25 0 014.5 9.75h15A2.25 2.25 0 0121.75 12v.75m-8.69-6.44l-2.12-2.12a1.5 1.5 0 00-1.061-.44H4.5A2.25 2.25 0 002.25 6v12a2.25 2.25 0 002.25 2.25h15A2.25 2.25 0 0021.75 18V9a2.25 2.25 0 00-2.25-2.25h-5.379a1.5 1.5 0 01-1.06-.44z" />
    </symbol>

    <symbol id="external-link">
        <svg class="w-6 h-6 text-gray-800 dark:text-white" aria-hidden="true" xmlns="http://www.w3.org/2000/svg" fill="none" viewBox="0 0 18 18">
            <path stroke="currentColor" stroke-linecap="round" stroke-linejoin="round" stroke-width="2" d="M15 11v4.833A1.166 1.166 0 0 1 13.833 17H2.167A1.167 1.167 0 0 1 1 15.833V4.167A1.166 1.166 0 0 1 2.167 3h4.618m4.447-2H17v5.768M9.111 8.889l7.778-7.778"/>
        </svg>
    </symbol>

    <symbol id="code-bracket">
        <svg class="w-6 h-6 text-gray-800 dark:text-white" aria-hidden="true" xmlns="http://www.w3.org/2000/svg" fill="none" viewBox="0 0 20 16">
            <path stroke="currentColor" stroke-linecap="round" stroke-linejoin="round" stroke-width="2" d="M5 4 1 8l4 4m10-8 4 4-4 4M11 1 9 15"/>
        </svg>
    </symbol>



</svg>