<svg xmlns="http://www.w3.org/2000/svg" style="display: none;">
  <!-- SVG icon files -->


    <symbol id="github" viewBox="0 0 31 30">
        <path d="M10.407 24.156C10.407 24.28 10.2643 24.3793 10.0844 24.3793C9.87972 24.3979 9.73704 24.2986 9.73704 24.156C9.73704 24.0319 9.87972 23.9326 10.0596 23.9326C10.2457 23.914 10.407 24.0133 10.407 24.156ZM8.47775 23.8768C8.43433 24.0009 8.5584 24.1435 8.7445 24.1808C8.90579 24.2428 9.09189 24.1808 9.12911 24.0567C9.16633 23.9326 9.04846 23.79 8.86236 23.7341C8.70108 23.6907 8.52118 23.7527 8.47775 23.8768ZM11.2196 23.7713C11.0397 23.8148 10.9157 23.9326 10.9343 24.0753C10.9529 24.1994 11.1142 24.28 11.3003 24.2366C11.4802 24.1932 11.6043 24.0753 11.5856 23.9512C11.567 23.8334 11.3995 23.7527 11.2196 23.7713ZM15.3015 0C6.69738 0 0.115601 6.53216 0.115601 15.1362C0.115601 22.0158 4.44556 27.9028 10.6303 29.9747C11.4244 30.1174 11.7035 29.6273 11.7035 29.2241C11.7035 28.8395 11.6849 26.718 11.6849 25.4152C11.6849 25.4152 7.34254 26.3457 6.43064 23.5666C6.43064 23.5666 5.72345 21.7614 4.7061 21.2962C4.7061 21.2962 3.28553 20.3223 4.80535 20.3409C4.80535 20.3409 6.35 20.4649 7.19986 21.9414C8.5584 24.3359 10.835 23.6473 11.7221 23.2379C11.8648 22.2453 12.268 21.5567 12.7147 21.1473C9.24697 20.7627 5.74827 20.2602 5.74827 14.2926C5.74827 12.5867 6.21972 11.7306 7.21227 10.6388C7.05098 10.2356 6.52369 8.57307 7.37355 6.4267C8.67006 6.02348 11.6539 8.10161 11.6539 8.10161C12.8946 7.75422 14.2283 7.57433 15.5496 7.57433C16.8709 7.57433 18.2047 7.75422 19.4453 8.10161C19.4453 8.10161 22.4292 6.01728 23.7257 6.4267C24.5755 8.57927 24.0482 10.2356 23.8869 10.6388C24.8795 11.7368 25.4874 12.5929 25.4874 14.2926C25.4874 20.2788 21.8336 20.7565 18.3659 21.1473C18.9366 21.6374 19.4205 22.5679 19.4205 24.0257C19.4205 26.1162 19.4019 28.703 19.4019 29.2117C19.4019 29.6149 19.6873 30.105 20.4751 29.9623C26.6785 27.9028 30.8844 22.0158 30.8844 15.1362C30.8844 6.53216 23.9056 0 15.3015 0ZM6.14528 21.3955C6.06464 21.4575 6.08325 21.6002 6.18871 21.718C6.28796 21.8173 6.43064 21.8607 6.51128 21.7801C6.59193 21.718 6.57332 21.5753 6.46786 21.4575C6.36861 21.3582 6.22593 21.3148 6.14528 21.3955ZM5.47532 20.893C5.4319 20.9736 5.49393 21.0729 5.618 21.1349C5.71725 21.1969 5.84132 21.1783 5.88474 21.0915C5.92817 21.0108 5.86613 20.9116 5.74206 20.8496C5.618 20.8123 5.51874 20.8309 5.47532 20.893ZM7.48521 23.1014C7.38596 23.182 7.42318 23.3681 7.56586 23.486C7.70854 23.6287 7.88843 23.6473 7.96908 23.548C8.04972 23.4674 8.0125 23.2813 7.88843 23.1634C7.75196 23.0207 7.56586 23.0021 7.48521 23.1014ZM6.77803 22.1895C6.67877 22.2515 6.67877 22.4128 6.77803 22.5555C6.87728 22.6982 7.04477 22.7602 7.12542 22.6982C7.22467 22.6175 7.22467 22.4562 7.12542 22.3136C7.03857 22.1709 6.87728 22.1088 6.77803 22.1895Z" fill="#9fef00"/>
    </symbol>

    <symbol id="linkedin" viewBox="0 0 31 30">
    <path d="M6.76565 29.9993H0.49926V9.97031H6.76565V29.9993ZM3.62908 7.23817C1.62529 7.23817 0 5.59085 0 3.60201C1.43422e-08 2.6467 0.382348 1.73051 1.06293 1.055C1.74352 0.379496 2.66659 0 3.62908 0C4.59157 0 5.51464 0.379496 6.19523 1.055C6.87581 1.73051 7.25816 2.6467 7.25816 3.60201C7.25816 5.59085 5.63219 7.23817 3.62908 7.23817ZM30.2187 29.9993H23.9658V20.2493C23.9658 17.9257 23.9186 14.9458 20.7078 14.9458C17.4498 14.9458 16.9506 17.4703 16.9506 20.0819V29.9993H10.6909V9.97031H16.7009V12.7025H16.7886C17.6252 11.1288 19.6688 9.46808 22.7177 9.46808C29.0596 9.46808 30.2255 13.6132 30.2255 18.9971V29.9993H30.2187Z" fill="#9fef00"/>
    </symbol>

    <symbol id="arrow" fill="none" viewBox="0 0 24 24" stroke-width="2.5" stroke="currentColor" class="w-6 h-6">
        <path stroke-linecap="round" stroke-linejoin="round" d="M11.25 4.5l7.5 7.5-7.5 7.5m-6-15l7.5 7.5-7.5 7.5" />
    </symbol>

    <symbol id="nav-arrow-down" fill="none" viewBox="0 0 24 24" stroke-width="1.5" stroke="currentColor" class="w-6 h-6">
        <path stroke-linecap="round" stroke-linejoin="round" d="M3 4.5h14.25M3 9h9.75M3 13.5h9.75m4.5-4.5v12m0 0l-3.75-3.75M17.25 21L21 17.25" />
    </symbol>

    <symbol id="nav-arrow-up" fill="none" viewBox="0 0 24 24" stroke-width="1.5" stroke="currentColor" class="w-6 h-6">
        <path stroke-linecap="round" stroke-linejoin="round" d="M3 4.5h14.25M3 9h9.75M3 13.5h5.25m5.25-.75L17.25 9m0 0L21 12.75M17.25 9v12" />
    </symbol>

    <symbol id="folder" fill="none" viewBox="0 0 24 24" stroke-width="1.5" stroke="currentColor" class="w-6 h-6">
        <path stroke-linecap="round" stroke-linejoin="round" d="M2.25 12.75V12A2.25 2.25 0 014.5 9.75h15A2.25 2.25 0 0121.75 12v.75m-8.69-6.44l-2.12-2.12a1.5 1.5 0 00-1.061-.44H4.5A2.25 2.25 0 002.25 6v12a2.25 2.25 0 002.25 2.25h15A2.25 2.25 0 0021.75 18V9a2.25 2.25 0 00-2.25-2.25h-5.379a1.5 1.5 0 01-1.06-.44z" />
    </symbol>



</svg>